# xmcd
#
# Track frame offsets:
#	183
#	76110
#	181665
#	248555
#
# Disc length: 4429 seconds
#
# Revision: 3
# Processed by: cddbd v1.5.2PL0 Copyright (c) Steve Scherf et al.
# Submitted via: audiograbber 1.83.01
#
DISCID=1d114b04
DTITLE=Miles Davis and Gil Evans - Concierto De Aranjuez - Carnegie Hall, May 19,
DTITLE=1961
DYEAR=1990
DGENRE=Jazz
TTITLE0=Concierto De Aranjuez (Part 1 and 2)
TTITLE1=Teo/Walkin' - I Thought About You
TTITLE2=Spring Is Here - No Blues
TTITLE3=Oleo/Someday My Prince Will Come/The Meaning Of The Blues/Lament - New 
TTITLE3=Rhumba
EXTD=
EXTT0=
EXTT1=
EXTT2=
EXTT3=
PLAYORDER=
